<?xml version="1.0" encoding="iso-8859-1"?>
<!-- Uploaded to: SVG Repo, www.svgrepo.com, Generator: SVG Repo Mixer Tools -->
<svg version="1.1" id="Layer_1" xmlns="http://www.w3.org/2000/svg" xmlns:xlink="http://www.w3.org/1999/xlink" 
	 viewBox="0 0 512 512" xml:space="preserve">
<path style="fill:#CD2A00;" d="M447.407,247.707v-55.482c0-6.995,5.723-12.717,12.717-12.717h30.432
	c6.995,0,12.717,5.722,12.717,12.717v134.59v56.545h-55.866v-79.336V247.707z"/>
<g>
	<rect id="SVGCleanerId_0" x="63.468" y="294.638" style="fill:#FF5023;" width="385.065" height="88.723"/>
</g>
<g>
	<rect id="SVGCleanerId_0_1_" x="63.468" y="294.638" style="fill:#FF5023;" width="385.065" height="88.723"/>
</g>
<g>
	<rect id="SVGCleanerId_0_2_" x="63.468" y="294.638" style="fill:#FF5023;" width="385.065" height="88.723"/>
</g>
<path style="fill:#FF6243;" d="M447.407,254.25V134.456c0-18.938-15.495-34.433-34.433-34.433H163.806h-64.78
	c-18.938,0-34.433,15.495-34.433,34.433V254.25L447.407,254.25L447.407,254.25z"/>
<path style="opacity:0.19;fill:#891C00;enable-background:new    ;" d="M415.451,100.08c0.035,0.635,0.057,1.272,0.057,1.915v92.642
	c0,14.996-12.156,27.152-27.152,27.152H65.155v32.461h382.814V134.456C447.969,116.161,433.507,101.083,415.451,100.08z"/>
<path style="fill:#CD2A00;" d="M64.593,247.707v-55.482c0-6.995-5.722-12.717-12.717-12.717H21.444
	c-6.995,0-12.717,5.722-12.717,12.717v134.59v56.545h55.866v-79.336V247.707z"/>
<g>
	<rect x="30.353" y="383.361" style="fill:#FF6243;" width="66.236" height="28.611"/>
	<rect x="414.294" y="383.361" style="fill:#FF6243;" width="66.236" height="28.611"/>
</g>
<rect x="64.593" y="303.104" style="opacity:0.4;fill:#891C00;enable-background:new    ;" width="383.939" height="25.248"/>
<path style="fill:#FF7956;" d="M147.918,249.519h295.866c6.691,0,12.166,5.475,12.166,12.166v29.113
	c0,6.691-5.475,12.166-12.166,12.166H66.467c-6.691,0-12.166-5.475-12.166-12.166v-29.113c0-6.691,5.475-12.166,12.166-12.166
	h32.559H147.918z"/>
<path d="M491.679,171.903h-30.432c-2.176,0-4.269,0.352-6.236,0.989v-38.434c0-23.179-18.858-42.037-42.037-42.037H163.806
	c-4.199,0-7.604,3.404-7.604,7.604s3.405,7.604,7.604,7.604h249.169c14.793,0,26.829,12.036,26.829,26.829v107.458H327.129
	l23.983-23.983c2.97-2.971,2.97-7.784,0-10.754c-2.97-2.969-7.784-2.969-10.753,0l-34.738,34.738h-42.629v-13.812
	c0-4.2-3.405-7.604-7.604-7.604s-7.604,3.404-7.604,7.604v13.812H203.92l-34.738-34.738c-2.97-2.969-7.784-2.969-10.753,0
	c-2.97,2.971-2.97,7.784,0,10.754l23.983,23.983h-34.493c-4.199,0-7.604,3.404-7.604,7.604c0,4.2,3.405,7.604,7.604,7.604h295.866
	c2.473,0,4.562,2.09,4.562,4.562v29.113c0,2.473-2.09,4.562-4.562,4.562H66.467c-2.473,0-4.562-2.09-4.562-4.562v-29.113
	c0-2.473,2.09-4.562,4.562-4.562h32.559c4.199,0,7.604-3.404,7.604-7.604c0-4.2-3.405-7.604-7.604-7.604H72.197V134.456
	c0-14.793,12.036-26.829,26.829-26.829c4.199,0,7.604-3.404,7.604-7.604s-3.405-7.604-7.604-7.604
	c-23.179,0-42.037,18.858-42.037,42.037v38.434c-1.967-0.636-4.061-0.989-6.236-0.989H20.321C9.116,171.903,0,181.019,0,192.224
	v191.135c0,4.2,3.405,7.604,7.604,7.604h15.145v21.01c0,4.2,3.405,7.604,7.604,7.604h66.236c4.199,0,7.604-3.404,7.604-7.604v-21.01
	h302.497v21.013c0,4.2,3.405,7.604,7.604,7.604h66.236c4.199,0,7.604-3.404,7.604-7.604v-21.013h16.263
	c4.199,0,7.604-3.404,7.604-7.604V192.224C512,181.019,502.884,171.903,491.679,171.903z M96.589,375.755H71.075v-64.127h369.852
	v64.127H96.589z M15.208,192.224c0-2.771,2.342-5.113,5.113-5.113h30.432c2.772,0,5.113,2.342,5.113,5.113v52.801
	c-5.503,3.514-9.169,9.661-9.169,16.66v29.113c0,7,3.667,13.146,9.169,16.66v68.298H30.353H15.208V192.224z M88.985,404.37H37.957
	v-13.406h25.514h25.514V404.37z M472.924,404.373h-51.028v-13.406h51.028V404.373z M496.792,375.755h-40.659v-69.544
	c4.517-3.627,7.42-9.184,7.42-15.414v-29.113c0-6.23-2.904-11.787-7.42-15.414v-54.048c0-2.771,2.342-5.113,5.113-5.113h30.432
	c2.772,0,5.113,2.342,5.113,5.113v183.532H496.792z"/>
<path d="M255.017,212.081c4.199,0,7.604-3.404,7.604-7.604v-19.999c0-4.2-3.405-7.604-7.604-7.604c-4.199,0-7.604,3.404-7.604,7.604
	v19.999C247.413,208.676,250.817,212.081,255.017,212.081z"/>
<path d="M88.985,148.356v48.009c0,4.2,3.405,7.604,7.604,7.604s7.604-3.404,7.604-7.604v-48.009c0-5.487,4.464-9.95,9.95-9.95
	h33.776c4.199,0,7.604-3.404,7.604-7.604c0-4.2-3.405-7.604-7.604-7.604h-33.776C100.27,123.198,88.985,134.485,88.985,148.356z"/>
</svg>